<?xml version="1.0" standalone="no"?>
<!DOCTYPE svg PUBLIC "-//W3C//DTD SVG 20010904//EN"
 "http://www.w3.org/TR/2001/REC-SVG-20010904/DTD/svg10.dtd">
<svg version="1.0" xmlns="http://www.w3.org/2000/svg"
 width="260.000000pt" height="260.000000pt" viewBox="0 0 260.000000 260.000000"
 preserveAspectRatio="xMidYMid meet">
<metadata>
Created by potrace 1.11, written by Peter Selinger 2001-2013
</metadata>
<g transform="translate(0.000000,260.000000) scale(0.100000,-0.100000)"
fill="#000000" stroke="none">
<path d="M2105 2240 c-168 -43 -322 -140 -499 -312 -49 -48 -90 -87 -91 -85
-1 1 -9 22 -19 47 -42 111 -148 246 -230 294 -113 66 -231 69 -402 11 -60 -21
-125 -45 -144 -55 -68 -34 -171 -66 -245 -76 -51 -7 -67 -26 -53 -64 19 -56
107 -119 166 -120 12 0 22 -2 22 -5 0 -4 -107 -181 -179 -295 -87 -138 -263
-491 -327 -656 -54 -139 -77 -223 -77 -291 -1 -43 5 -60 36 -107 71 -107 175
-186 244 -186 72 0 304 97 455 190 127 79 221 155 369 296 l26 25 1 -36 c2
-45 43 -167 78 -229 65 -116 181 -199 314 -223 46 -9 184 -8 235 1 289 53 559
371 503 594 -12 47 -40 71 -58 50 -6 -7 -36 -56 -67 -108 -68 -116 -121 -185
-203 -268 -61 -61 -139 -122 -157 -122 -5 0 -15 -6 -21 -12 -22 -22 -115 -45
-169 -43 -56 2 -123 32 -155 68 -34 39 -68 123 -81 199 -55 325 110 751 407
1056 232 238 520 390 592 311 38 -42 23 -115 -66 -334 -39 -96 -47 -214 -17
-272 20 -38 72 -83 97 -83 25 0 33 13 70 110 33 88 42 109 83 200 50 110 58
179 32 266 -27 89 -130 216 -210 257 -55 28 -167 31 -260 7z m-845 -222 c54
-34 103 -164 94 -249 -15 -142 -31 -199 -85 -317 -22 -46 -39 -87 -39 -92 0
-22 -134 -230 -184 -287 -6 -6 -38 -42 -71 -80 -101 -116 -302 -280 -413 -338
-20 -11 -39 -22 -42 -25 -20 -22 -252 -120 -285 -120 -14 0 -49 53 -40 62 2 2
6 18 10 36 6 36 37 126 65 187 10 22 19 45 20 50 5 26 179 350 302 560 16 28
34 61 41 75 6 14 15 27 18 30 13 10 108 205 114 235 3 17 8 37 10 45 2 8 4 39
4 68 l1 52 45 12 c25 7 45 16 45 20 0 4 7 8 16 8 8 0 39 11 69 25 30 14 62 28
72 30 10 2 38 11 63 19 51 16 138 13 170 -6z"/>
</g>
</svg>
